<?xml version="1.0" standalone="no"?>
<!DOCTYPE svg PUBLIC "-//W3C//DTD SVG 20010904//EN"
 "http://www.w3.org/TR/2001/REC-SVG-20010904/DTD/svg10.dtd">
<svg version="1.0" xmlns="http://www.w3.org/2000/svg"
 width="30.000000pt" height="30.000000pt" viewBox="0 0 30.000000 30.000000"
 preserveAspectRatio="xMidYMid meet">

<g transform="translate(0.000000,30.000000) scale(0.100000,-0.100000)"
fill="#000000" stroke="none">
<path d="M200 252 c0 -20 -5 -22 -51 -22 -43 0 -55 -5 -80 -29 -39 -40 -39
-82 1 -122 24 -25 37 -30 67 -27 52 4 51 30 -1 39 -39 6 -56 21 -56 51 0 29
29 48 76 48 39 0 44 -3 44 -22 0 -22 2 -21 31 10 l32 34 -32 31 c-29 30 -31
30 -31 9z"/>
</g>
</svg>
