<?xml version="1.0" standalone="no"?>
<!DOCTYPE svg PUBLIC "-//W3C//DTD SVG 20010904//EN"
 "http://www.w3.org/TR/2001/REC-SVG-20010904/DTD/svg10.dtd">
<svg version="1.0" xmlns="http://www.w3.org/2000/svg"
 width="30.000000pt" height="30.000000pt" viewBox="0 0 30.000000 30.000000"
 preserveAspectRatio="xMidYMid meet">

<g transform="translate(0.000000,30.000000) scale(0.100000,-0.100000)"
fill="#000000" stroke="none">
<path d="M66 242 l-28 -31 31 -33 c29 -31 31 -32 31 -10 0 19 5 22 44 22 47 0
76 -19 76 -48 0 -30 -17 -45 -56 -51 -52 -9 -53 -35 -1 -39 30 -3 43 2 67 27
40 40 40 82 1 122 -25 24 -38 29 -80 29 -43 0 -50 3 -53 21 -3 19 -5 19 -32
-9z"/>
</g>
</svg>
